<?xml version="1.0" encoding="UTF-8" standalone="no"?>
<svg
   id="qr-code"
   height="500"
   viewBox="0 0 26.25 26.25"
   width="500"
   version="1.1"
   xmlns="http://www.w3.org/2000/svg"
   xmlns:svg="http://www.w3.org/2000/svg">
  <defs
     id="defs2" />
  <rect
     style="fill:#dbdbe3;stroke-width:0.062571"
     id="rect2"
     width="26.25"
     height="26.25"
     x="0"
     y="0"
     ry="5.632225" />
  <path
     d="m 8.05,1.05 h 1 v 1 h -1 z m 1,0 h 1 v 1 h -1 z m 4,0 h 1 v 1 h -1 z m 1,0 h 1 v 1 h -1 z m -12,1 h 1 v 1 h -1 z m 1,0 h 1 v 1 h -1 z m 1,0 h 1 v 1 h -1 z m 1,0 h 1 v 1 h -1 z m 1,0 h 1 v 1 h -1 z m 2,0 h 1 v 1 h -1 z m 1,0 h 1 v 1 h -1 z m 3,0 h 1 v 1 h -1 z m 1,0 h 1 v 1 h -1 z m 1,0 h 1 v 1 h -1 z m 2,0 h 1 v 1 h -1 z m 1,0 h 1 v 1 h -1 z m 1,0 h 1 v 1 h -1 z m 1,0 h 1 v 1 h -1 z m 1,0 h 1 v 1 h -1 z m -18,1 h 1 v 1 h -1 z m 4,0 h 1 v 1 h -1 z m 2,0 h 1 v 1 h -1 z m 2,0 h 1 v 1 h -1 z m 1,0 h 1 v 1 h -1 z m 3,0 h 1 v 1 h -1 z m 2,0 h 1 v 1 h -1 z m 4,0 h 1 v 1 h -1 z m -18,1 h 1 v 1 h -1 z m 4,0 h 1 v 1 h -1 z m 2,0 h 1 v 1 h -1 z m 1,0 h 1 v 1 h -1 z m 1,0 h 1 v 1 h -1 z m 4,0 h 1 v 1 h -1 z m 2,0 h 1 v 1 h -1 z m 4,0 h 1 v 1 h -1 z m -18,1 h 1 v 1 h -1 z m 4,0 h 1 v 1 h -1 z m 2,0 h 1 v 1 h -1 z m 2,0 h 1 v 1 h -1 z m 1,0 h 1 v 1 h -1 z m 1,0 h 1 v 1 h -1 z m 1,0 h 1 v 1 h -1 z m 1,0 h 1 v 1 h -1 z m 2,0 h 1 v 1 h -1 z m 4,0 h 1 v 1 h -1 z m -18,1 h 1 v 1 h -1 z m 1,0 h 1 v 1 h -1 z m 1,0 h 1 v 1 h -1 z m 1,0 h 1 v 1 h -1 z m 1,0 h 1 v 1 h -1 z m 2,0 h 1 v 1 h -1 z m 2,0 h 1 v 1 h -1 z m 1,0 h 1 v 1 h -1 z m 3,0 h 1 v 1 h -1 z m 2,0 h 1 v 1 h -1 z m 1,0 h 1 v 1 h -1 z m 1,0 h 1 v 1 h -1 z m 1,0 h 1 v 1 h -1 z m 1,0 h 1 v 1 h -1 z m -12,1 h 1 v 1 h -1 z m 2,0 h 1 v 1 h -1 z m 2,0 h 1 v 1 h -1 z m 2,0 h 1 v 1 h -1 z m -13,1 h 1 v 1 h -1 z m 1,0 h 1 v 1 h -1 z m 1,0 h 1 v 1 h -1 z m 1,0 h 1 v 1 h -1 z m 1,0 h 1 v 1 h -1 z m 1,0 h 1 v 1 h -1 z m 1,0 h 1 v 1 h -1 z m 1,0 h 1 v 1 h -1 z m 1,0 h 1 v 1 h -1 z m 1,0 h 1 v 1 h -1 z m 2,0 h 1 v 1 h -1 z m 2,0 h 1 v 1 h -1 z m 1,0 h 1 v 1 h -1 z m 1,0 h 1 v 1 h -1 z m 1,0 h 1 v 1 h -1 z m 1,0 h 1 v 1 h -1 z m 1,0 h 1 v 1 h -1 z m 1,0 h 1 v 1 h -1 z m 1,0 h 1 v 1 h -1 z m -20,1 h 1 v 1 h -1 z m 2,0 h 1 v 1 h -1 z m 1,0 h 1 v 1 h -1 z m 2,0 h 1 v 1 h -1 z m 2,0 h 1 v 1 h -1 z m 2,0 h 1 v 1 h -1 z m 1,0 h 1 v 1 h -1 z m 4,0 h 1 v 1 h -1 z m 3,0 h 1 v 1 h -1 z m 2,0 h 1 v 1 h -1 z m 1,0 h 1 v 1 h -1 z m -17,1 h 1 v 1 h -1 z m 1,0 h 1 v 1 h -1 z m 1,0 h 1 v 1 h -1 z m 1,0 h 1 v 1 h -1 z m 4,0 h 1 v 1 h -1 z m 1,0 h 1 v 1 h -1 z m 1,0 h 1 v 1 h -1 z m 2,0 h 1 v 1 h -1 z m 1,0 h 1 v 1 h -1 z m 2,0 h 1 v 1 h -1 z m 2,0 h 1 v 1 h -1 z m 1,0 h 1 v 1 h -1 z m -20,1 h 1 v 1 h -1 z m 1,0 h 1 v 1 h -1 z m 2,0 h 1 v 1 h -1 z m 2,0 h 1 v 1 h -1 z m 2,0 h 1 v 1 h -1 z m 1,0 h 1 v 1 h -1 z m 1,0 h 1 v 1 h -1 z m 1,0 h 1 v 1 h -1 z m 1,0 h 1 v 1 h -1 z m 1,0 h 1 v 1 h -1 z m 2,0 h 1 v 1 h -1 z m 1,0 h 1 v 1 h -1 z m 5,0 h 1 v 1 h -1 z m -20,1 h 1 v 1 h -1 z m 2,0 h 1 v 1 h -1 z m 1,0 h 1 v 1 h -1 z m 2,0 h 1 v 1 h -1 z m 1,0 h 1 v 1 h -1 z m 3,0 h 1 v 1 h -1 z m 3,0 h 1 v 1 h -1 z m 1,0 h 1 v 1 h -1 z m 1,0 h 1 v 1 h -1 z m 4,0 h 1 v 1 h -1 z m 2,0 h 1 v 1 h -1 z m -20,1 h 1 v 1 h -1 z m 1,0 h 1 v 1 h -1 z m 1,0 h 1 v 1 h -1 z m 2,0 h 1 v 1 h -1 z m 7,0 h 1 v 1 h -1 z m 3,0 h 1 v 1 h -1 z m 1,0 h 1 v 1 h -1 z m 2,0 h 1 v 1 h -1 z m 1,0 h 1 v 1 h -1 z m -18,1 h 1 v 1 h -1 z m 1,0 h 1 v 1 h -1 z m 1,0 h 1 v 1 h -1 z m 1,0 h 1 v 1 h -1 z m 1,0 h 1 v 1 h -1 z m 1,0 h 1 v 1 h -1 z m 1,0 h 1 v 1 h -1 z m 1,0 h 1 v 1 h -1 z m 5,0 h 1 v 1 h -1 z m 1,0 h 1 v 1 h -1 z m 1,0 h 1 v 1 h -1 z m 4,0 h 1 v 1 h -1 z m 1,0 h 1 v 1 h -1 z m 1,0 h 1 v 1 h -1 z m -13,1 h 1 v 1 h -1 z m 1,0 h 1 v 1 h -1 z m 1,0 h 1 v 1 h -1 z m 2,0 h 1 v 1 h -1 z m 2,0 h 1 v 1 h -1 z m 2,0 h 1 v 1 h -1 z m 5,0 h 1 v 1 h -1 z m -19,1 h 1 v 1 h -1 z m 1,0 h 1 v 1 h -1 z m 1,0 h 1 v 1 h -1 z m 1,0 h 1 v 1 h -1 z m 1,0 h 1 v 1 h -1 z m 2,0 h 1 v 1 h -1 z m 1,0 h 1 v 1 h -1 z m 1,0 h 1 v 1 h -1 z m 2,0 h 1 v 1 h -1 z m 1,0 h 1 v 1 h -1 z m 2,0 h 1 v 1 h -1 z m 1,0 h 1 v 1 h -1 z m 2,0 h 1 v 1 h -1 z m 1,0 h 1 v 1 h -1 z m -17,1 h 1 v 1 h -1 z m 4,0 h 1 v 1 h -1 z m 2,0 h 1 v 1 h -1 z m 2,0 h 1 v 1 h -1 z m 1,0 h 1 v 1 h -1 z m 2,0 h 1 v 1 h -1 z m 2,0 h 1 v 1 h -1 z m 1,0 h 1 v 1 h -1 z m 1,0 h 1 v 1 h -1 z m 2,0 h 1 v 1 h -1 z m 2,0 h 1 v 1 h -1 z m -19,1 h 1 v 1 h -1 z m 4,0 h 1 v 1 h -1 z m 2,0 h 1 v 1 h -1 z m 1,0 h 1 v 1 h -1 z m 2,0 h 1 v 1 h -1 z m 1,0 h 1 v 1 h -1 z m 4,0 h 1 v 1 h -1 z m 2,0 h 1 v 1 h -1 z m -16,1 h 1 v 1 h -1 z m 4,0 h 1 v 1 h -1 z m 2,0 h 1 v 1 h -1 z m 1,0 h 1 v 1 h -1 z m 2,0 h 1 v 1 h -1 z m 2,0 h 1 v 1 h -1 z m 3,0 h 1 v 1 h -1 z m 3,0 h 1 v 1 h -1 z m 1,0 h 1 v 1 h -1 z m 1,0 h 1 v 1 h -1 z m -19,1 h 1 v 1 h -1 z m 1,0 h 1 v 1 h -1 z m 1,0 h 1 v 1 h -1 z m 1,0 h 1 v 1 h -1 z m 1,0 h 1 v 1 h -1 z m 2,0 h 1 v 1 h -1 z m 2,0 h 1 v 1 h -1 z m 2,0 h 1 v 1 h -1 z m 3,0 h 1 v 1 h -1 z m 3,0 h 1 v 1 h -1 z m 1,0 h 1 v 1 h -1 z m 1,0 h 1 v 1 h -1 z m 1,0 h 1 v 1 h -1 z m -13,1 h 1 v 1 h -1 z m 1,0 h 1 v 1 h -1 z m 2,0 h 1 v 1 h -1 z m 2,0 h 1 v 1 h -1 z m 2,0 h 1 v 1 h -1 z m 3,0 h 1 v 1 h -1 z m 1,0 h 1 v 1 h -1 z m 1,0 h 1 v 1 h -1 z"
     fill="#ffffff"
     id="path1"
     style="fill:none" />
  <path
     d="m 2.625,2.625 h 1 v 1 h -1 z m 1,0 h 1 v 1 h -1 z m 1,0 h 1 v 1 h -1 z m 1,0 h 1 v 1 h -1 z m 1,0 h 1 v 1 h -1 z m 1,0 h 1 v 1 h -1 z m 1,0 h 1 v 1 h -1 z m 3,0 h 1 v 1 h -1 z m 1,0 h 1 v 1 h -1 z m 1,0 h 1 v 1 h -1 z m 3,0 h 1 v 1 h -1 z m 1,0 h 1 v 1 h -1 z m 1,0 h 1 v 1 h -1 z m 1,0 h 1 v 1 h -1 z m 1,0 h 1 v 1 h -1 z m 1,0 h 1 v 1 h -1 z m 1,0 h 1 v 1 h -1 z m -20,1 h 1 v 1 h -1 z m 6,0 h 1 v 1 h -1 z m 3,0 h 1 v 1 h -1 z m 1,0 h 1 v 1 h -1 z m 4,0 h 1 v 1 h -1 z m 6,0 h 1 v 1 h -1 z m -20,1 h 1 v 1 h -1 z m 2,0 h 1 v 1 h -1 z m 1,0 h 1 v 1 h -1 z m 1,0 h 1 v 1 h -1 z m 2,0 h 1 v 1 h -1 z m 2,0 h 1 v 1 h -1 z m 3,0 h 1 v 1 h -1 z m 1,0 h 1 v 1 h -1 z m 2,0 h 1 v 1 h -1 z m 2,0 h 1 v 1 h -1 z m 1,0 h 1 v 1 h -1 z m 1,0 h 1 v 1 h -1 z m 2,0 h 1 v 1 h -1 z m -20,1 h 1 v 1 h -1 z m 2,0 h 1 v 1 h -1 z m 1,0 h 1 v 1 h -1 z m 1,0 h 1 v 1 h -1 z m 2,0 h 1 v 1 h -1 z m 4,0 h 1 v 1 h -1 z m 1,0 h 1 v 1 h -1 z m 1,0 h 1 v 1 h -1 z m 2,0 h 1 v 1 h -1 z m 2,0 h 1 v 1 h -1 z m 1,0 h 1 v 1 h -1 z m 1,0 h 1 v 1 h -1 z m 2,0 h 1 v 1 h -1 z m -20,1 h 1 v 1 h -1 z m 2,0 h 1 v 1 h -1 z m 1,0 h 1 v 1 h -1 z m 1,0 h 1 v 1 h -1 z m 2,0 h 1 v 1 h -1 z m 2,0 h 1 v 1 h -1 z m 6,0 h 1 v 1 h -1 z m 2,0 h 1 v 1 h -1 z m 1,0 h 1 v 1 h -1 z m 1,0 h 1 v 1 h -1 z m 2,0 h 1 v 1 h -1 z m -20,1 h 1 v 1 h -1 z m 6,0 h 1 v 1 h -1 z m 2,0 h 1 v 1 h -1 z m 3,0 h 1 v 1 h -1 z m 1,0 h 1 v 1 h -1 z m 2,0 h 1 v 1 h -1 z m 6,0 h 1 v 1 h -1 z m -20,1 h 1 v 1 h -1 z m 1,0 h 1 v 1 h -1 z m 1,0 h 1 v 1 h -1 z m 1,0 h 1 v 1 h -1 z m 1,0 h 1 v 1 h -1 z m 1,0 h 1 v 1 h -1 z m 1,0 h 1 v 1 h -1 z m 2,0 h 1 v 1 h -1 z m 2,0 h 1 v 1 h -1 z m 2,0 h 1 v 1 h -1 z m 2,0 h 1 v 1 h -1 z m 1,0 h 1 v 1 h -1 z m 1,0 h 1 v 1 h -1 z m 1,0 h 1 v 1 h -1 z m 1,0 h 1 v 1 h -1 z m 1,0 h 1 v 1 h -1 z m 1,0 h 1 v 1 h -1 z m -10,1 h 1 v 1 h -1 z m 2,0 h 1 v 1 h -1 z m -11,1 h 1 v 1 h -1 z m 3,0 h 1 v 1 h -1 z m 2,0 h 1 v 1 h -1 z m 2,0 h 1 v 1 h -1 z m 3,0 h 1 v 1 h -1 z m 1,0 h 1 v 1 h -1 z m 1,0 h 1 v 1 h -1 z m 2,0 h 1 v 1 h -1 z m 1,0 h 1 v 1 h -1 z m 2,0 h 1 v 1 h -1 z m -18,1 h 1 v 1 h -1 z m 1,0 h 1 v 1 h -1 z m 1,0 h 1 v 1 h -1 z m 5,0 h 1 v 1 h -1 z m 1,0 h 1 v 1 h -1 z m 1,0 h 1 v 1 h -1 z m 4,0 h 1 v 1 h -1 z m 3,0 h 1 v 1 h -1 z m 2,0 h 1 v 1 h -1 z m -16,1 h 1 v 1 h -1 z m 2,0 h 1 v 1 h -1 z m 2,0 h 1 v 1 h -1 z m 7,0 h 1 v 1 h -1 z m 3,0 h 1 v 1 h -1 z m 1,0 h 1 v 1 h -1 z m 1,0 h 1 v 1 h -1 z m 1,0 h 1 v 1 h -1 z m -18,1 h 1 v 1 h -1 z m 3,0 h 1 v 1 h -1 z m 3,0 h 1 v 1 h -1 z m 1,0 h 1 v 1 h -1 z m 2,0 h 1 v 1 h -1 z m 1,0 h 1 v 1 h -1 z m 4,0 h 1 v 1 h -1 z m 1,0 h 1 v 1 h -1 z m 1,0 h 1 v 1 h -1 z m 2,0 h 1 v 1 h -1 z m -16,1 h 1 v 1 h -1 z m 2,0 h 1 v 1 h -1 z m 1,0 h 1 v 1 h -1 z m 1,0 h 1 v 1 h -1 z m 1,0 h 1 v 1 h -1 z m 1,0 h 1 v 1 h -1 z m 1,0 h 1 v 1 h -1 z m 2,0 h 1 v 1 h -1 z m 1,0 h 1 v 1 h -1 z m 3,0 h 1 v 1 h -1 z m 3,0 h 1 v 1 h -1 z m 1,0 h 1 v 1 h -1 z m -12,1 h 1 v 1 h -1 z m 1,0 h 1 v 1 h -1 z m 1,0 h 1 v 1 h -1 z m 1,0 h 1 v 1 h -1 z m 4,0 h 1 v 1 h -1 z m 1,0 h 1 v 1 h -1 z m 1,0 h 1 v 1 h -1 z m -17,1 h 1 v 1 h -1 z m 1,0 h 1 v 1 h -1 z m 1,0 h 1 v 1 h -1 z m 1,0 h 1 v 1 h -1 z m 1,0 h 1 v 1 h -1 z m 1,0 h 1 v 1 h -1 z m 1,0 h 1 v 1 h -1 z m 4,0 h 1 v 1 h -1 z m 2,0 h 1 v 1 h -1 z m 2,0 h 1 v 1 h -1 z m 2,0 h 1 v 1 h -1 z m 1,0 h 1 v 1 h -1 z m 1,0 h 1 v 1 h -1 z m 1,0 h 1 v 1 h -1 z m -19,1 h 1 v 1 h -1 z m 6,0 h 1 v 1 h -1 z m 4,0 h 1 v 1 h -1 z m 3,0 h 1 v 1 h -1 z m 3,0 h 1 v 1 h -1 z m 3,0 h 1 v 1 h -1 z m 1,0 h 1 v 1 h -1 z m -20,1 h 1 v 1 h -1 z m 2,0 h 1 v 1 h -1 z m 1,0 h 1 v 1 h -1 z m 1,0 h 1 v 1 h -1 z m 2,0 h 1 v 1 h -1 z m 2,0 h 1 v 1 h -1 z m 3,0 h 1 v 1 h -1 z m 2,0 h 1 v 1 h -1 z m 4,0 h 1 v 1 h -1 z m 2,0 h 1 v 1 h -1 z m -19,1 h 1 v 1 h -1 z m 2,0 h 1 v 1 h -1 z m 1,0 h 1 v 1 h -1 z m 1,0 h 1 v 1 h -1 z m 2,0 h 1 v 1 h -1 z m 3,0 h 1 v 1 h -1 z m 3,0 h 1 v 1 h -1 z m 1,0 h 1 v 1 h -1 z m 1,0 h 1 v 1 h -1 z m 2,0 h 1 v 1 h -1 z m 2,0 h 1 v 1 h -1 z m 1,0 h 1 v 1 h -1 z m 1,0 h 1 v 1 h -1 z m -20,1 h 1 v 1 h -1 z m 2,0 h 1 v 1 h -1 z m 1,0 h 1 v 1 h -1 z m 1,0 h 1 v 1 h -1 z m 2,0 h 1 v 1 h -1 z m 3,0 h 1 v 1 h -1 z m 2,0 h 1 v 1 h -1 z m 2,0 h 1 v 1 h -1 z m 1,0 h 1 v 1 h -1 z m 2,0 h 1 v 1 h -1 z m 1,0 h 1 v 1 h -1 z m -17,1 h 1 v 1 h -1 z m 6,0 h 1 v 1 h -1 z m 2,0 h 1 v 1 h -1 z m 2,0 h 1 v 1 h -1 z m 2,0 h 1 v 1 h -1 z m 1,0 h 1 v 1 h -1 z m 2,0 h 1 v 1 h -1 z m 1,0 h 1 v 1 h -1 z m -16,1 h 1 v 1 h -1 z m 1,0 h 1 v 1 h -1 z m 1,0 h 1 v 1 h -1 z m 1,0 h 1 v 1 h -1 z m 1,0 h 1 v 1 h -1 z m 1,0 h 1 v 1 h -1 z m 1,0 h 1 v 1 h -1 z m 3,0 h 1 v 1 h -1 z m 2,0 h 1 v 1 h -1 z m 2,0 h 1 v 1 h -1 z m 2,0 h 1 v 1 h -1 z m 1,0 h 1 v 1 h -1 z m 4,0 h 1 v 1 h -1 z"
     fill="#000000"
     id="path2"
     style="fill:#00002b" />
</svg>
